<svg xmlns="http://www.w3.org/2000/svg" data-name="Layer 1" viewBox="0 0 512 512" id="health-records"><rect width="354" height="432" x="79" y="72.5" fill="#ffc166" rx="30"></rect><path fill="#fff" d="M363 102.5h34a6.005 6.005 0 0 1 6 6v285l-61 66H115a6.005 6.005 0 0 1-6-6v-345a6.005 6.005 0 0 1 6-6h248Z"></path><path fill="#eee" d="M363 87.5v30a19.994 19.994 0 0 1-20 20H199a19.994 19.994 0 0 1-20-20v-30a19.914 19.914 0 0 1 6.78-15h170.44a19.914 19.914 0 0 1 6.78 15Z"></path><path fill="#ffb74e" d="M363 87.5v15H179v-15a19.914 19.914 0 0 1 6.78-15h170.44a19.914 19.914 0 0 1 6.78 15Z"></path><path fill="#bebebe" d="M302.95 52.5a46.992 46.992 0 0 0-93.9 0H184a20 20 0 0 0-20 20v30a20 20 0 0 0 20 20h144a20 20 0 0 0 20-20v-30a20 20 0 0 0-20-20Z"></path><path fill="#adadad" d="M328 52.5h-15a20 20 0 0 1 20 20v30a20 20 0 0 1-20 20h15a20 20 0 0 0 20-20v-30a20 20 0 0 0-20-20zm-40.05 0h15A46.974 46.974 0 0 0 248.5 8.105 47.005 47.005 0 0 1 287.95 52.5z"></path><path fill="#eee" d="M342 459.5v-60a6 6 0 0 1 6-6h55Z"></path><path fill="#ff8e66" d="M154 265.242a51.2 51.2 0 0 1 100.38 0Z"></path><path fill="#ff7c4e" d="M240.388 239.15a51.029 51.029 0 0 0-36.202-14.992 51.553 51.553 0 0 0-7.486.554 51.204 51.204 0 0 1 42.68 40.53h15a51.049 51.049 0 0 0-13.992-26.092Z"></path><circle cx="204.189" cy="195.829" r="28.329" fill="#ffcd85"></circle><path fill="#ffc166" d="M204.189 167.5a28.336 28.336 0 0 0-7.5 1.011 28.329 28.329 0 0 1 0 54.636 28.329 28.329 0 1 0 7.5-55.647Z"></path><path fill="#dedede" d="M358 175h-83.567a7.5 7.5 0 0 1 0-15H358a7.5 7.5 0 0 1 0 15zm-30 30h-53.567a7.5 7.5 0 0 1 0-15H328a7.5 7.5 0 0 1 0 15z"></path><rect width="42.5" height="42.5" x="150.25" y="306" fill="#eee" rx="5"></rect><path fill="#dedede" d="M358 321H234a7.5 7.5 0 0 1 0-15h124a7.5 7.5 0 0 1 0 15zm0 35H234a7.5 7.5 0 0 1 0-15h124a7.5 7.5 0 0 1 0 15zm-61 45h-63a7.5 7.5 0 0 1 0-15h63a7.5 7.5 0 0 1 0 15zm0 35h-63a7.5 7.5 0 0 1 0-15h63a7.5 7.5 0 0 1 0 15z"></path><rect width="44.286" height="44.286" x="149.357" y="384.214" fill="#eee" rx="5"></rect></svg>