<?xml version="1.0" encoding="UTF-8"?>
<svg xmlns="http://www.w3.org/2000/svg" xmlns:xlink="http://www.w3.org/1999/xlink" width="3724" height="5520" viewBox="0 0 3724 5520">
<path fill-rule="evenodd" fill="rgb(50.389099%, 77.34375%, 100%)" fill-opacity="1" d="M 3119.390625 4353.5 L 3119.390625 4631.730469 C 3119.390625 4864.800781 2584.339844 5054.023438 1925.289062 5054.023438 C 1266.25 5054.023438 731.191406 4864.800781 731.191406 4631.730469 L 731.191406 4353.5 "/>
<path fill-rule="evenodd" fill="rgb(68.164062%, 85.546875%, 100%)" fill-opacity="1" d="M 1925.289062 3931.210938 C 2584.339844 3931.210938 3119.390625 4120.429688 3119.390625 4353.5 C 3119.390625 4586.570312 2584.339844 4775.792969 1925.289062 4775.792969 C 1266.25 4775.792969 731.191406 4586.570312 731.191406 4353.5 C 731.191406 4120.429688 1266.25 3931.210938 1925.289062 3931.210938 "/>
<path fill-rule="evenodd" fill="rgb(91.40625%, 96.09375%, 100%)" fill-opacity="1" d="M 1925.289062 4035.96875 C 2516.941406 4035.96875 2997.269531 4170.160156 2997.269531 4335.429688 C 2997.269531 4500.710938 2516.941406 4634.890625 1925.289062 4634.890625 C 1333.648438 4634.890625 853.3125 4500.710938 853.3125 4335.429688 C 853.3125 4170.160156 1333.648438 4035.96875 1925.289062 4035.96875 "/>
<path fill-rule="nonzero" fill="rgb(33.496094%, 69.726562%, 100%)" fill-opacity="1" d="M 1913.710938 466.238281 L 1913.710938 3016.761719 C 1874.339844 3029.578125 1842.839844 3102.730469 1822.191406 3191.710938 C 1785.429688 3350.148438 1745.75 3559.109375 1731.328125 3647.128906 C 1713.921875 3753.359375 1674.109375 4067.140625 1661.320312 4213.390625 C 1655.660156 4278.191406 1532.800781 4387.238281 1462.261719 4439.058594 C 1403.960938 4481.878906 1334.058594 4524.203125 1277.339844 4513.519531 C 1193.019531 4497.640625 1107.230469 4437.550781 1138.421875 4354.761719 C 1161.539062 4293.390625 1354.808594 4144.859375 1354.808594 4144.859375 C 1401.921875 3991.769531 1500.78125 2774.53125 1503.871094 2588.96875 C 1509.101562 2274.371094 1491.308594 1980.730469 1491.308594 1980.730469 C 1491.308594 1980.730469 1380.28125 2111.378906 1302.660156 2256.710938 C 1266.050781 2325.261719 1190.289062 2465.789062 1201.761719 2521.359375 C 1213.238281 2576.929688 1255.871094 2695.25 1250.738281 2722.648438 C 1246.949219 2742.828125 1226.941406 2756.730469 1202.269531 2751.378906 C 1178.210938 2746.171875 1169.839844 2683.640625 1169.839844 2683.640625 C 1150.878906 2730.71875 1158.078125 2850.320312 1093.230469 2874.421875 C 1028.378906 2898.519531 847.570312 2880.789062 847.78125 2823.410156 C 848.105469 2733.550781 883.304688 2609.890625 908.585938 2565.890625 C 933.867188 2521.898438 996.15625 2475.769531 1016.960938 2412.171875 C 1030.679688 2370.191406 1115.660156 2074.640625 1219.03125 1885.460938 C 1322.71875 1695.679688 1412.671875 1583.878906 1517.230469 1506.25 C 1578.890625 1460.46875 1700.378906 1438.339844 1802.019531 1428.808594 L 1802.019531 1347.621094 C 1754.199219 1322.710938 1699.648438 1280.050781 1651.378906 1207 C 1629.050781 1173.21875 1609.71875 1148.128906 1601.988281 1114.640625 C 1578.089844 1132.441406 1558.699219 1123.160156 1541.839844 1110.558594 C 1518.328125 1093 1503.140625 1052.871094 1497.878906 992.648438 C 1492.621094 932.429688 1519.429688 899.71875 1554.011719 897.488281 C 1568.699219 896.550781 1579.371094 900.839844 1586.011719 910.371094 C 1587.21875 875.429688 1590.699219 839.839844 1596.058594 804.730469 C 1600.789062 773.710938 1606.988281 743.078125 1614.410156 713.621094 C 1668.988281 496.820312 1859.621094 469.578125 1913.710938 466.238281 "/>
<path fill-rule="evenodd" fill="rgb(70.3125%, 86.521912%, 100%)" fill-opacity="1" d="M 492.824219 3503.371094 L 679.875 4210.671875 L 700.214844 4205.289062 L 513.164062 3497.988281 L 492.824219 3503.371094 "/>
<path fill-rule="evenodd" fill="rgb(70.3125%, 86.521912%, 100%)" fill-opacity="1" d="M 794.4375 3722.871094 L 846.929688 3953.558594 L 867.441406 3948.890625 L 814.949219 3718.199219 L 794.4375 3722.871094 "/>
<path fill-rule="evenodd" fill="rgb(70.3125%, 86.521912%, 100%)" fill-opacity="1" d="M 961.566406 3536.558594 L 1056.238281 3975.769531 L 1076.808594 3971.339844 L 982.132812 3532.128906 L 961.566406 3536.558594 "/>
<path fill-rule="evenodd" fill="rgb(70.3125%, 86.521912%, 100%)" fill-opacity="1" d="M 1191.429688 3726.78125 L 1216.828125 3866.511719 L 1237.53125 3862.738281 L 1212.128906 3723.019531 L 1191.429688 3726.78125 "/>
<path fill-rule="evenodd" fill="rgb(70.3125%, 86.521912%, 100%)" fill-opacity="1" d="M 451.140625 3808.089844 L 513.882812 4008.410156 L 533.960938 4002.121094 L 471.214844 3801.800781 L 451.140625 3808.089844 "/>
<path fill-rule="evenodd" fill="rgb(70.3125%, 86.521912%, 100%)" fill-opacity="1" d="M 567.855469 3316.308594 L 624.335938 3512.480469 L 644.554688 3506.660156 L 588.074219 3310.488281 L 567.855469 3316.308594 "/>
<path fill-rule="evenodd" fill="rgb(70.3125%, 86.521912%, 100%)" fill-opacity="1" d="M 802.605469 3346.101562 L 880.082031 3646.308594 L 900.453125 3641.050781 L 822.976562 3340.839844 L 802.605469 3346.101562 "/>
<path fill-rule="evenodd" fill="rgb(70.3125%, 86.521912%, 100%)" fill-opacity="1" d="M 1210.878906 3418.289062 L 1253.890625 3632.511719 L 1274.519531 3628.359375 L 1231.511719 3414.148438 L 1210.878906 3418.289062 "/>
<path fill-rule="evenodd" fill="rgb(70.3125%, 86.521912%, 100%)" fill-opacity="1" d="M 1269.628906 3131.78125 L 1333.230469 3532.691406 L 1354.011719 3529.390625 L 1290.398438 3128.480469 L 1269.628906 3131.78125 "/>
<path fill-rule="evenodd" fill="rgb(70.3125%, 86.521912%, 100%)" fill-opacity="1" d="M 3196.101562 3667.160156 L 3076.21875 4132.789062 L 3096.589844 4138.039062 L 3216.46875 3672.410156 L 3196.101562 3667.160156 "/>
<path fill-rule="evenodd" fill="rgb(70.3125%, 86.521912%, 100%)" fill-opacity="1" d="M 2971.371094 3459.808594 L 2894.53125 3917.300781 L 2915.269531 3920.789062 L 2992.121094 3463.300781 L 2971.371094 3459.808594 "/>
<path fill-rule="evenodd" fill="rgb(70.3125%, 86.521912%, 100%)" fill-opacity="1" d="M 2708.421875 3685.78125 L 2694.769531 3963.601562 L 2715.789062 3964.628906 L 2729.429688 3686.808594 L 2708.421875 3685.78125 "/>
<path fill-rule="evenodd" fill="rgb(70.3125%, 86.521912%, 100%)" fill-opacity="1" d="M 2521.160156 3275.550781 L 2523.609375 3675.539062 L 2544.648438 3675.410156 L 2542.199219 3275.421875 L 2521.160156 3275.550781 "/>
<path fill-rule="evenodd" fill="rgb(70.3125%, 86.521912%, 100%)" fill-opacity="1" d="M 3252.800781 3992.96875 L 3217.011719 4130.558594 L 3237.371094 4135.851562 L 3273.160156 3998.269531 L 3252.800781 3992.96875 "/>
<path fill-rule="evenodd" fill="rgb(70.3125%, 86.521912%, 100%)" fill-opacity="1" d="M 3210.539062 3154.671875 L 3036.261719 3831.480469 L 3056.628906 3836.730469 L 3230.910156 3159.921875 L 3210.539062 3154.671875 "/>
<path fill-rule="evenodd" fill="rgb(70.3125%, 86.521912%, 100%)" fill-opacity="1" d="M 2820.519531 3323.410156 L 2804.789062 3529.488281 L 2825.769531 3531.089844 L 2841.5 3325.011719 L 2820.519531 3323.410156 "/>
<path fill-rule="evenodd" fill="rgb(70.3125%, 86.521912%, 100%)" fill-opacity="1" d="M 2635.691406 3001.910156 L 2638.140625 3401.898438 L 2659.179688 3401.769531 L 2656.730469 3001.78125 L 2635.691406 3001.910156 "/>
<path fill-rule="evenodd" fill="rgb(70.3125%, 86.521912%, 100%)" fill-opacity="1" d="M 1820.800781 3478.039062 L 1819.789062 3859.03125 L 1840.820312 3859.089844 L 1841.839844 3478.101562 L 1820.800781 3478.039062 "/>
<path fill-rule="evenodd" fill="rgb(70.3125%, 86.521912%, 100%)" fill-opacity="1" d="M 2020.320312 3655.710938 L 2011.851562 3794.589844 L 2032.851562 3795.871094 L 2041.320312 3656.988281 L 2020.320312 3655.710938 "/>
<path fill-rule="evenodd" fill="rgb(70.3125%, 86.521912%, 100%)" fill-opacity="1" d="M 1949.921875 3282.691406 L 1941.21875 3494.808594 L 1962.238281 3495.679688 L 1970.941406 3283.550781 L 1949.921875 3282.691406 "/>
<path fill-rule="evenodd" fill="rgb(44.700623%, 75%, 100%)" fill-opacity="1" d="M 2652.050781 4485.109375 C 2628.371094 4498.929688 2600.730469 4508.800781 2573.25 4513.980469 C 2538.011719 4520.617188 2497.691406 4506.800781 2458.230469 4485.109375 Z M 2718.710938 4390.511719 C 2718.578125 4401.230469 2716.449219 4411.429688 2712.660156 4421.050781 L 2364.101562 4421.050781 C 2352.328125 4411.769531 2339.808594 4401.480469 2327.101562 4390.511719 Z M 2665.71875 4293.511719 C 2675.960938 4304.171875 2685.160156 4314.480469 2692.730469 4324.050781 L 2257.359375 4324.050781 C 2247.839844 4313.859375 2238.878906 4303.621094 2230.78125 4293.511719 Z M 2562.171875 4198.910156 C 2573.519531 4208.421875 2585.609375 4218.730469 2597.808594 4229.449219 L 2192.550781 4229.449219 C 2190.820312 4224.019531 2189.699219 4218.800781 2189.261719 4213.851562 C 2188.839844 4209.050781 2188.390625 4204.070312 2187.921875 4198.910156 Z M 2485.859375 4101.910156 C 2488.078125 4113.738281 2490.230469 4123.980469 2492.289062 4132.449219 L 2181.261719 4132.449219 C 2180.21875 4122.539062 2179.109375 4112.339844 2177.96875 4101.910156 Z M 2470.980469 4007.308594 C 2472.449219 4017.949219 2473.910156 4028.140625 2475.339844 4037.851562 L 2170.71875 4037.851562 C 2169.550781 4027.761719 2168.351562 4017.558594 2167.140625 4007.308594 Z M 2458.300781 3908.351562 C 2459.550781 3918.769531 2460.789062 3928.960938 2462.03125 3938.890625 L 2158.871094 3938.890625 C 2157.609375 3928.691406 2156.339844 3918.5 2155.070312 3908.351562 Z M 2448.539062 3823.890625 C 2449.039062 3828.378906 2449.550781 3832.871094 2450.050781 3837.359375 L 2450.828125 3844.28125 L 2146.910156 3844.28125 C 2145.570312 3833.941406 2144.230469 3823.738281 2142.921875 3813.738281 L 2447.421875 3813.738281 Z M 2437.898438 3724.949219 C 2438.410156 3729.808594 2438.921875 3734.679688 2439.429688 3739.539062 L 2440.25 3747.289062 L 2133.949219 3747.289062 C 2132.480469 3736.660156 2131.050781 3726.449219 2129.671875 3716.75 L 2437.050781 3716.75 Z M 2427.488281 3622.140625 C 2428.5 3632.390625 2429.511719 3642.570312 2430.519531 3652.679688 L 2120.089844 3652.679688 L 2119.261719 3647.589844 C 2118.011719 3639.96875 2116.570312 3631.449219 2114.96875 3622.140625 Z M 2419.601562 3540.738281 L 2421.03125 3555.691406 L 2103.058594 3555.691406 L 2101.71875 3548.441406 C 2100.878906 3543.910156 2100.039062 3539.390625 2099.199219 3534.871094 L 2097.371094 3525.140625 L 2418.121094 3525.140625 Z M 2409.339844 3430.539062 C 2410.269531 3440.730469 2411.199219 3450.898438 2412.140625 3461.078125 L 2085.101562 3461.078125 C 2083.140625 3451.039062 2081.140625 3440.839844 2079.101562 3430.539062 Z M 2400.660156 3333.539062 C 2401.558594 3343.710938 2402.460938 3353.890625 2403.359375 3364.078125 L 2065.699219 3364.078125 C 2063.609375 3353.921875 2061.5 3343.730469 2059.378906 3333.539062 Z M 2392.480469 3238.941406 C 2393.339844 3249.109375 2394.21875 3259.300781 2395.089844 3269.480469 L 2045.730469 3269.480469 C 2043.488281 3259.199219 2041.25 3249 2039.011719 3238.941406 Z M 2384.421875 3142.539062 C 2385.261719 3152.671875 2386.101562 3162.851562 2386.949219 3173.078125 L 2023.730469 3173.078125 C 2021.039062 3162.589844 2018.191406 3152.390625 2015.191406 3142.539062 Z M 2377.859375 3061.378906 C 2378.269531 3066.460938 2378.671875 3071.53125 2379.078125 3076.609375 L 2379.230469 3078.480469 L 1990.808594 3078.480469 C 1985.21875 3066.949219 1979.308594 3056.679688 1973.121094 3047.941406 L 2376.789062 3047.941406 Z M 2369.839844 2958.339844 C 2370.199219 2963.109375 2370.570312 2967.871094 2370.929688 2972.640625 L 2371.609375 2981.480469 L 1913.710938 2981.480469 L 1913.710938 2950.941406 L 2369.28125 2950.941406 Z M 2362.769531 2862.941406 C 2363.089844 2867.300781 2363.398438 2871.660156 2363.71875 2876.019531 L 2364.511719 2886.878906 L 1913.710938 2886.878906 L 1913.710938 2856.339844 L 2362.300781 2856.339844 Z M 2979.210938 2856.339844 C 2928.109375 2887.078125 2807.738281 2893.601562 2757.359375 2874.878906 C 2746.839844 2870.96875 2738.21875 2864.550781 2731.078125 2856.339844 Z M 2355.621094 2759.339844 C 2356.261719 2769.210938 2356.941406 2779.371094 2357.660156 2789.878906 L 1913.710938 2789.878906 L 1913.710938 2759.339844 Z M 2997.800781 2759.339844 C 2999.21875 2769.648438 3000.390625 2779.871094 3001.230469 2789.878906 L 2702.25 2789.878906 C 2699.941406 2779.789062 2698.03125 2769.488281 2696.308594 2759.339844 Z M 2349.898438 2665.460938 C 2350.421875 2675.050781 2351.011719 2685.238281 2351.640625 2696 L 1913.710938 2696 L 1913.710938 2665.460938 Z M 2978.519531 2665.460938 C 2981.191406 2675.371094 2983.730469 2685.601562 2986.101562 2696 L 2684.660156 2696 C 2683.480469 2691.671875 2679.429688 2681.121094 2677.988281 2677.550781 C 2677.988281 2677.550781 2674.238281 2686.171875 2670.03125 2696 L 2602.058594 2696 C 2603.78125 2687.039062 2606.238281 2676.671875 2609.160156 2665.460938 Z M 2346.441406 2570.859375 C 2346.519531 2577.039062 2346.621094 2583.230469 2346.71875 2589.429688 C 2346.78125 2593.03125 2346.871094 2597.019531 2347.011719 2601.398438 L 1913.710938 2601.398438 L 1913.710938 2570.859375 Z M 2944.480469 2570.859375 C 2948.820312 2579.078125 2953.398438 2589.441406 2958 2601.398438 L 2627.320312 2601.398438 C 2630.359375 2591.011719 2633.371094 2580.71875 2636.179688 2570.859375 Z M 2345.761719 2473.859375 C 2345.761719 2483.988281 2345.789062 2494.171875 2345.828125 2504.398438 L 1913.710938 2504.398438 L 1913.710938 2473.859375 Z M 2867.511719 2473.859375 C 2875.550781 2484.480469 2884.140625 2494.621094 2892.660156 2504.398438 L 2649.871094 2504.398438 C 2649.410156 2495.300781 2647.671875 2485.011719 2644.921875 2473.859375 Z M 2346.160156 2388.839844 C 2346.121094 2393.421875 2346.078125 2398.011719 2346.039062 2402.601562 L 2345.980469 2409.800781 L 1913.710938 2409.800781 L 1913.710938 2379.261719 L 2346.261719 2379.261719 Z M 2823.261719 2379.261719 C 2827.449219 2392.839844 2830.640625 2403.261719 2832.71875 2409.800781 L 2622.960938 2409.800781 C 2618.800781 2399.710938 2614.328125 2389.480469 2609.671875 2379.261719 Z M 2347.859375 2282.261719 C 2347.640625 2292.28125 2347.429688 2302.46875 2347.238281 2312.800781 L 1913.710938 2312.800781 L 1913.710938 2282.261719 Z M 2792.511719 2282.261719 C 2795.988281 2292.890625 2799.300781 2303.089844 2802.410156 2312.800781 L 2577.25 2312.800781 C 2571.730469 2302.050781 2566.339844 2291.789062 2561.289062 2282.261719 Z M 2350.378906 2187.660156 C 2350.058594 2197.570312 2349.761719 2207.761719 2349.460938 2218.199219 L 1913.710938 2218.199219 L 1913.710938 2187.660156 Z M 2760.300781 2187.660156 C 2763.960938 2198 2767.519531 2208.191406 2770.96875 2218.199219 L 2526.160156 2218.199219 C 2520.148438 2207.871094 2514.03125 2197.679688 2507.859375 2187.660156 Z M 2353.929688 2090.660156 C 2353.519531 2100.308594 2353.109375 2110.488281 2352.699219 2121.199219 L 1913.710938 2121.199219 L 1913.710938 2090.660156 Z M 2724.289062 2090.660156 C 2728.269531 2100.871094 2732.179688 2111.058594 2736 2121.199219 L 2464.640625 2121.199219 C 2457.390625 2110.601562 2450.261719 2100.390625 2443.320312 2090.660156 Z M 2358.441406 1996.050781 C 2358.019531 2003.601562 2357.480469 2013.878906 2356.851562 2026.589844 L 1913.710938 2026.589844 L 1913.710938 1996.050781 Z M 2685.171875 1996.050781 C 2689.621094 2006.160156 2694.011719 2016.359375 2698.328125 2026.589844 L 2395.730469 2026.589844 C 2385.96875 2014 2377.71875 2003.671875 2371.539062 1996.050781 Z M 2638.941406 1899.660156 C 2644.191406 1909.601562 2649.390625 1919.800781 2654.519531 1930.191406 L 1913.710938 1930.191406 L 1913.710938 1899.660156 Z M 2585.378906 1805.050781 C 2591.328125 1814.96875 2597.308594 1825.148438 2603.328125 1835.589844 L 1913.710938 1835.589844 L 1913.710938 1805.050781 Z M 2522.769531 1708.050781 C 2529.679688 1717.921875 2536.621094 1728.089844 2543.578125 1738.589844 L 1913.710938 1738.589844 L 1913.710938 1708.050781 Z M 2448.699219 1613.449219 C 2457.351562 1623.21875 2465.960938 1633.390625 2474.558594 1643.988281 L 1913.710938 1643.988281 L 1913.710938 1613.449219 Z M 2346.171875 1516.449219 C 2358.558594 1526.089844 2370.75 1536.25 2382.789062 1546.988281 L 1913.710938 1546.988281 L 1913.710938 1516.449219 Z M 2048.558594 1421.851562 L 2048.558594 1429.269531 C 2096.601562 1433.769531 2149.070312 1441.089844 2197.550781 1452.390625 L 1913.710938 1452.390625 L 1913.710938 1421.851562 Z M 2086.96875 1324.851562 C 2073.871094 1333.941406 2060.988281 1341.609375 2048.558594 1348.078125 L 2048.558594 1355.390625 L 1913.710938 1355.390625 L 1913.710938 1324.851562 Z M 2183.238281 1230.25 C 2175.109375 1241.191406 2166.839844 1251.359375 2158.5 1260.789062 L 1913.710938 1260.789062 L 1913.710938 1230.25 Z M 2242.109375 1135.640625 C 2237.890625 1146.148438 2232.53125 1156.101562 2226.371094 1166.179688 L 1913.710938 1166.179688 L 1913.710938 1135.640625 Z M 2345.511719 1041.039062 C 2342.929688 1052.390625 2339.820312 1062.578125 2336.210938 1071.578125 L 1913.710938 1071.578125 L 1913.710938 1041.039062 Z M 2348.761719 944.039062 C 2351.429688 952.96875 2353.03125 963.160156 2353.320312 974.578125 L 1913.710938 974.578125 L 1913.710938 944.039062 Z M 2260.238281 849.441406 C 2261.308594 859.628906 2262.21875 869.820312 2262.941406 879.980469 L 1913.710938 879.980469 L 1913.710938 849.441406 Z M 2245 752.441406 C 2247.109375 762.539062 2249.070312 772.71875 2250.878906 782.980469 L 1913.710938 782.980469 L 1913.710938 752.441406 Z M 2217.410156 657.839844 C 2221.53125 667.519531 2225.339844 677.699219 2228.800781 688.378906 L 1913.710938 688.378906 L 1913.710938 657.839844 Z M 2153 560.839844 C 2162.171875 570.089844 2171 580.238281 2179.359375 591.378906 L 1913.710938 591.378906 L 1913.710938 560.839844 Z M 1913.710938 496.78125 L 1913.710938 466.699219 C 1917.238281 466.480469 1920.191406 466.359375 1922.480469 466.300781 L 1922.480469 466.25 C 1922.480469 466.25 1923.449219 466.21875 1925.289062 466.238281 C 1927.128906 466.21875 1928.109375 466.25 1928.109375 466.25 L 1928.109375 466.300781 C 1945.339844 466.761719 1999.820312 470.371094 2059.238281 496.78125 L 1913.710938 496.78125 "/>
</svg>
