<?xml version="1.0" encoding="utf-8"?><svg version="1.1" id="Layer_1" xmlns="http://www.w3.org/2000/svg" xmlns:xlink="http://www.w3.org/1999/xlink" x="0px" y="0px" viewBox="0 0 122.88 96.17" style="enable-background:new 0 0 122.88 96.17" xml:space="preserve"><g><path d="M61.56,3.11c-0.04,0-0.08,0-0.12,0c-0.04,0-0.08,0-0.12,0C59.43,3.1,57.5,3.2,55.54,3.44c-1.9,0.23-3.8,0.58-5.7,1.06 c-2.15,0.54-4.18,1.53-6.15,2.48c-2.3,1.12-4.54,2.2-7.01,2.66c-2.25,0.42-4.31,0.19-6.64-0.07c-3.13-0.34-6.81-0.75-12.01,0.47 c-1.27,0.3-2.49,0.65-3.64,1.05c-4.05,1.43-7.36,3.56-9.3,6.63c-1.93,3.05-2.57,7.12-1.31,12.47c0.26,1.1,0.59,2.24,1.01,3.44 l3.29,6.14c0.05,0.09,0.09,0.18,0.11,0.27c0.2,0.55,0.46,1.41,0.78,2.42c0.81,2.62,1.96,6.35,2.38,6.96 c0.03-0.03,0.07-0.06,0.1-0.1c0.06-0.19,0.15-0.37,0.29-0.53c0.03-0.04,0.06-0.08,0.1-0.11c0.42-0.92,0.65-2.34,0.48-4.16 c-0.62-6.74,1.85-8.09,4.39-9.47c1.16-0.63,2.35-1.28,2.87-3.21c-1.03-0.16-1.95-0.43-2.62-0.63c-0.31-0.09-0.29-0.17-0.41-0.16 c-0.6,0.03-1.3,0.16-1.98,0.28c-3.3,0.58-6.31,1.12-7.49-4.13c-0.43-1.9-0.23-3.91,0.62-5.8c0.78-1.74,2.11-3.38,4-4.73 c0.84-0.6,1.78-1.12,2.79-1.56c3.91-1.69,8.95-2.09,13.61-1.22l0.01,0l0,0c4.74,0.88,9.13,3.09,11.66,6.63 c0.5,0.7,0.93,1.44,1.27,2.24c0.44,1.01,0.76,2.1,0.95,3.25c0.17,1.01,0.24,2.07,0.2,3.18c0.02,0.06,0.03,0.12,0.03,0.19 c0.11,0.87,0.17,1.68,0.24,2.44c0.05,0.59,0.1,1.15,0.14,1.54c0.39,3.55,1.42,5.57,2.43,7.54c1.36,2.65,2.67,5.23,2.68,10.63 c0,1.44-0.03,2.6-0.05,3.63c-0.09,3.42-0.13,5.29,1.32,10.35c0.53,1.85,1.06,4.05,1.58,6.22l0.14,0.58 c0.48,2.01,0.61,4.43,0.44,6.84c-0.17,2.5-0.66,5.03-1.39,7.09c-0.39,1.1-0.82,1.81-1.15,2.36c-0.02,0.03-0.04,0.07-0.06,0.1 c-0.17,0.31-0.16,0.5,0.77,1.38c0.37,0.35,0.87,0.67,1.47,0.95c0.99-2.51,1.65-4.43,2.03-6.5c0.45-2.43,0.55-5.17,0.39-9.42 c-0.05-1.32,0.39-2.69,0.96-4.46c1.23-3.8,3.15-9.77,1.19-19.97c-0.32-1.67-0.77-3.31-1.32-4.88c-0.58-1.66-1.28-3.24-2.04-4.7 c-0.49-0.93-0.96-1.82-1.38-2.61c-3.36-6.3-3.68-6.9-4.41-16.29c0-0.03-0.28-0.44-0.56-0.84c-0.45-0.65-0.9-1.31-1.09-2.06 c-0.05-0.17-0.08-0.34-0.08-0.52v-3.94h0.01c0-0.15,0.02-0.3,0.06-0.45c0.25-0.95,1.22-1.52,2.17-1.28c4.83,1.27,9.7,1.9,14.58,1.9 c4.83,0,9.65-0.62,14.44-1.86c0.19-0.07,0.38-0.1,0.59-0.1c0.99,0,1.79,0.8,1.79,1.79v3.94h0c0,0.11-0.01,0.22-0.03,0.33 c-0.16,0.84-0.65,1.55-1.14,2.26c-0.28,0.4-0.56,0.81-0.56,0.84c-0.74,9.39-1.06,9.99-4.41,16.29c-0.42,0.8-0.9,1.68-1.38,2.61 c-0.76,1.45-1.45,3.04-2.04,4.7c-0.55,1.57-1,3.2-1.32,4.88c-1.96,10.2-0.04,16.17,1.19,19.97c0.57,1.77,1.01,3.14,0.96,4.46 c-0.15,4.25-0.05,6.99,0.39,9.42c0.4,2.15,1.09,4.13,2.15,6.79c0.62-0.35,1.19-0.77,1.7-1.25c1.02-0.96,0.94-1.1,0.71-1.47l0,0 c-0.34-0.57-0.78-1.29-1.16-2.36c-0.73-2.06-1.21-4.59-1.39-7.09c-0.17-2.41-0.04-4.84,0.44-6.84l0.14-0.58 c0.52-2.16,1.05-4.36,1.58-6.22c1.45-5.05,1.4-6.92,1.32-10.35c-0.03-1.03-0.06-2.19-0.05-3.63c0.01-5.4,1.32-7.97,2.68-10.63 c1.01-1.97,2.04-3.99,2.43-7.54c0.04-0.39,0.09-0.95,0.14-1.54c0.06-0.76,0.13-1.57,0.24-2.44c0.01-0.06,0.02-0.13,0.03-0.19 c-0.04-1.11,0.03-2.17,0.2-3.18c0.19-1.15,0.51-2.24,0.95-3.25c0.34-0.8,0.77-1.55,1.27-2.24c2.53-3.54,6.93-5.75,11.66-6.63l0,0 l0.01,0c4.66-0.87,9.7-0.46,13.61,1.22c1.01,0.43,1.95,0.95,2.79,1.56c1.89,1.36,3.22,2.99,4,4.73c0.85,1.9,1.05,3.9,0.62,5.8 c-1.18,5.25-4.19,4.72-7.49,4.13c-0.68-0.12-1.37-0.24-1.98-0.28c-0.12-0.01-0.09,0.07-0.37,0.15c-0.62,0.18-1.47,0.42-2.44,0.56 c0.51,1.94,1.67,2.6,2.8,3.25c2.47,1.41,4.86,2.78,4.24,9.51c-0.17,1.82,0.06,3.23,0.48,4.16c0.03,0.03,0.07,0.07,0.1,0.11 c0.13,0.16,0.23,0.34,0.29,0.53c0.03,0.04,0.07,0.07,0.1,0.1c0.42-0.61,1.58-4.34,2.38-6.96c0.31-1.01,0.58-1.87,0.78-2.42 c0.03-0.09,0.07-0.18,0.11-0.27l3.29-6.14c0.42-1.2,0.75-2.34,1.01-3.44c1.26-5.35,0.62-9.42-1.31-12.47 c-1.94-3.07-5.25-5.2-9.3-6.63c-1.15-0.41-2.37-0.76-3.64-1.05c-5.2-1.22-8.88-0.82-12.01-0.47c-2.34,0.26-4.39,0.48-6.64,0.07 c-2.47-0.46-4.7-1.54-7.01-2.66c-1.97-0.96-4-1.94-6.15-2.48c-1.9-0.48-3.8-0.83-5.7-1.06C65.38,3.2,63.45,3.1,61.56,3.11 L61.56,3.11z M54.17,92.13l0.05,0.01c2.89,0.67,6.23,0.95,8.79,0.92c0.04,0,0.07,0,0.11,0c0.04,0,0.07,0,0.11,0 c1.93,0.02,3.72-0.13,5.32-0.5c-1.12-2.81-1.86-4.95-2.31-7.4c-0.5-2.7-0.61-5.66-0.45-10.18c0.02-0.7-0.33-1.8-0.8-3.24 c-1.33-4.14-3.43-10.65-1.3-21.73c0.35-1.83,0.85-3.64,1.46-5.38c0.64-1.81,1.4-3.55,2.25-5.17c0.55-1.04,1-1.89,1.4-2.64 c3.03-5.68,3.32-6.22,4-14.89c0.08-0.97,0.63-1.78,1.19-2.58c0.22-0.32,0.45-0.64,0.53-0.81v-1.43c-4.41,0.99-8.83,1.48-13.24,1.48 c-4.41,0-8.83-0.5-13.24-1.48v1.43c0.08,0.16,0.31,0.48,0.53,0.81c0.56,0.8,1.11,1.61,1.19,2.58c0.68,8.67,0.97,9.22,4,14.89 c0.4,0.75,0.85,1.59,1.4,2.64c0.85,1.61,1.61,3.36,2.25,5.17c0.61,1.74,1.11,3.55,1.46,5.38c2.13,11.08,0.04,17.58-1.3,21.73 c-0.46,1.44-0.82,2.55-0.8,3.24c0.16,4.52,0.05,7.48-0.45,10.18C55.88,87.48,55.19,89.53,54.17,92.13L54.17,92.13z M51.67,94.68 c-0.13-0.02-0.27-0.06-0.4-0.11c-0.06-0.02-0.11-0.05-0.16-0.08c-1.61-0.56-2.99-1.27-3.94-2.17c-2.79-2.64-2.44-3.36-1.31-5.23 c0.02-0.04,0.04-0.07,0.06-0.11c0.27-0.44,0.61-1,0.89-1.79c0.64-1.8,1.06-4.03,1.22-6.26c0.15-2.14,0.05-4.24-0.36-5.92 l-0.14-0.58c-0.48-2.01-0.98-4.06-1.56-6.08c-1.57-5.48-1.52-7.53-1.43-11.27c0.03-1.02,0.06-2.18,0.05-3.55 c-0.01-4.65-1.16-6.89-2.34-9.21c-1.14-2.23-2.31-4.52-2.76-8.63c-0.07-0.62-0.11-1.1-0.15-1.62l-0.05-0.59 c-0.41,0.18-0.79,0.41-1.14,0.71c-0.8,0.7-1.49,1.81-2.01,3.54c-0.51,1.71-0.73,3.36-0.95,4.99c-0.36,2.67-0.71,5.33-2.18,8.38 c-0.45,0.93-0.98,1.75-1.57,2.48c-1.87,2.27-4.36,3.48-7.09,3.76c-2.62,0.28-5.46-0.31-8.17-1.62c-1.01-0.49-2.01-1.08-2.98-1.77 c-0.49,0.38-1.04,0.6-1.62,0.65c-0.56,0.05-1.1-0.06-1.62-0.33c-1.47-0.78-2.95-5.58-3.97-8.89c-0.29-0.93-0.54-1.73-0.71-2.23 L2,35.04c-0.05-0.08-0.09-0.17-0.12-0.26c-0.48-1.35-0.86-2.64-1.15-3.88c-1.46-6.24-0.66-11.09,1.71-14.84 c2.36-3.73,6.22-6.26,10.9-7.91c1.27-0.45,2.6-0.83,3.97-1.15C23.03,5.67,27,6.1,30.38,6.47c2.1,0.23,3.95,0.43,5.74,0.1 c2.04-0.38,4.1-1.38,6.21-2.4c2.12-1.03,4.29-2.08,6.75-2.7c2.03-0.51,4.07-0.89,6.09-1.13c2.04-0.25,4.1-0.36,6.17-0.34 c0.03,0,0.06,0,0.09,0c0.03,0,0.06,0,0.09,0c2.07-0.02,4.13,0.09,6.17,0.34c2.02,0.24,4.06,0.62,6.09,1.13 c2.45,0.62,4.63,1.68,6.75,2.7c2.12,1.03,4.17,2.02,6.21,2.4c1.79,0.33,3.64,0.13,5.74-0.1c3.38-0.37,7.35-0.81,13.06,0.53 c1.37,0.32,2.7,0.7,3.97,1.15c4.68,1.65,8.54,4.18,10.9,7.91c2.37,3.74,3.18,8.6,1.71,14.84c-0.29,1.23-0.67,2.52-1.15,3.88 c-0.03,0.09-0.07,0.18-0.12,0.26l-3.28,6.11c-0.17,0.49-0.42,1.3-0.71,2.23c-1.02,3.31-2.5,8.1-3.97,8.89 c-0.51,0.27-1.06,0.38-1.62,0.33c-0.58-0.05-1.13-0.27-1.62-0.65c-0.97,0.69-1.97,1.28-2.98,1.77c-2.71,1.31-5.55,1.9-8.17,1.62 c-2.73-0.29-5.21-1.49-7.09-3.76c-0.6-0.72-1.13-1.55-1.57-2.48c-1.47-3.05-1.83-5.71-2.18-8.38c-0.22-1.64-0.44-3.28-0.95-4.99 c-0.52-1.73-1.21-2.84-2.01-3.54c-0.35-0.3-0.73-0.53-1.14-0.71l-0.05,0.59c-0.04,0.51-0.08,1-0.15,1.62 c-0.45,4.11-1.62,6.4-2.76,8.63c-1.18,2.32-2.33,4.56-2.34,9.21c0,1.37,0.03,2.53,0.05,3.55c0.09,3.75,0.15,5.8-1.43,11.27 c-0.58,2.03-1.07,4.07-1.56,6.08l-0.14,0.58c-0.4,1.68-0.5,3.78-0.36,5.92c0.15,2.23,0.58,4.46,1.22,6.26 c0.29,0.81,0.62,1.36,0.88,1.79l0,0l0,0c1.18,1.95,1.6,2.65-1.25,5.34c-1.53,1.45-3.41,2.43-5.58,3.05 c-2.07,0.59-4.41,0.83-6.94,0.81c-0.03,0-0.05,0-0.08,0c-0.03,0-0.05,0-0.08,0c-2.78,0.03-6.39-0.27-9.51-0.99 C52.88,95.03,52.26,94.86,51.67,94.68L51.67,94.68z M44.53,19.3c-0.02-0.06-0.03-0.13-0.04-0.19L44.53,19.3L44.53,19.3z M20.95,28.85c0.15-0.02,0.31-0.03,0.47,0c0.03,0,0.05,0,0.08,0c0.18,0.01,0.35,0.05,0.5,0.12c2.62,0.54,4.9,0.22,6.9-1.17 c2.09-1.45,3.97-4.05,5.72-8.03c-1.97-1.4-4.46-2.34-7.08-2.83v0c-4.08-0.76-8.45-0.42-11.81,1.03c-0.8,0.35-1.54,0.76-2.2,1.23 c-1.43,1.03-2.42,2.22-2.98,3.47c-0.57,1.27-0.71,2.6-0.43,3.85c0.53,2.34,2.14,2.05,3.91,1.74c0.74-0.13,1.51-0.27,2.34-0.31 c0.41-0.02,0.86,0.11,1.46,0.29C18.62,28.46,19.82,28.81,20.95,28.85L20.95,28.85z M37.01,22.02c-1.88,3.98-3.97,6.69-6.35,8.34 c-2.41,1.67-5.03,2.24-7.95,1.89c-0.7,3.46-2.63,4.51-4.51,5.53c-1.63,0.89-3.21,1.75-2.78,6.46c0.19,2.05-0.04,3.79-0.49,5.11 c0.85,0.61,1.72,1.13,2.61,1.56c2.2,1.06,4.46,1.54,6.5,1.33c1.93-0.2,3.69-1.05,5-2.64c0.44-0.53,0.83-1.14,1.17-1.85 c1.26-2.61,1.58-5.01,1.9-7.43c0.24-1.78,0.47-3.57,1.04-5.48c0.7-2.35,1.72-3.93,2.96-5c0.91-0.79,1.91-1.28,2.96-1.58 c-0.02-0.6-0.07-1.18-0.16-1.74c-0.15-0.89-0.4-1.74-0.74-2.53c-0.25-0.59-0.57-1.14-0.94-1.66 C37.16,22.22,37.08,22.12,37.01,22.02L37.01,22.02z M107.95,49.35c-0.46-1.32-0.68-3.05-0.49-5.11c0.43-4.73-1.11-5.61-2.69-6.52 c-1.84-1.05-3.72-2.13-4.39-5.63c-3.07,0.46-5.79-0.05-8.27-1.79c-2.32-1.62-4.36-4.31-6.23-8.28c-0.08,0.1-0.15,0.2-0.22,0.3 c-0.37,0.52-0.69,1.07-0.94,1.66c-0.34,0.8-0.59,1.64-0.74,2.53c-0.09,0.56-0.15,1.13-0.16,1.74c1.05,0.3,2.05,0.79,2.96,1.58 c1.24,1.07,2.26,2.65,2.96,5c0.57,1.91,0.81,3.7,1.04,5.48c0.32,2.42,0.64,4.82,1.9,7.43c0.34,0.71,0.74,1.33,1.17,1.85 c1.31,1.59,3.07,2.44,5,2.64c2.04,0.21,4.3-0.27,6.5-1.33C106.23,50.48,107.11,49.95,107.95,49.35L107.95,49.35z M101.77,28.75 c0.03,0,0.06,0,0.08,0.01c1.21,0.02,2.45-0.34,3.25-0.56c0.57-0.16,0.99-0.28,1.4-0.26c0.84,0.05,1.6,0.18,2.34,0.31 c1.77,0.31,3.39,0.6,3.92-1.74c0.28-1.25,0.15-2.58-0.43-3.85c-0.56-1.24-1.54-2.44-2.98-3.47c-0.66-0.47-1.4-0.88-2.2-1.23 c-3.36-1.45-7.73-1.79-11.81-1.03v0c-2.63,0.49-5.11,1.44-7.08,2.83c1.75,3.98,3.58,6.56,5.62,7.98c2.05,1.43,4.42,1.68,7.23,1.02 C101.34,28.71,101.56,28.71,101.77,28.75L101.77,28.75z"/></g></svg>